<mxfile host="" modified="2020-06-21T08:55:30.498Z" agent="5.0 (Windows NT 10.0; Win64; x64) AppleWebKit/537.36 (KHTML, like Gecko) Code/1.46.1 Chrome/78.0.3904.130 Electron/7.3.1 Safari/537.36" etag="Dm6epICo-8D0ypB4p3t5" version="13.1.3">
    <diagram id="UGgqBbXCINzURfmvxQfG" name="Page-1">
        <mxGraphModel dx="1706" dy="522" grid="1" gridSize="10" guides="1" tooltips="1" connect="1" arrows="1" fold="1" page="1" pageScale="1" pageWidth="827" pageHeight="1169" math="0" shadow="0">
            <root>
                <mxCell id="0"/>
                <mxCell id="1" parent="0"/>
                <mxCell id="Ku1PNWVY-iLV4aGeplBr-20" value="" style="rounded=1;whiteSpace=wrap;html=1;fillColor=#ffffff;" parent="1" vertex="1">
                    <mxGeometry x="520" y="270" width="220" height="140" as="geometry"/>
                </mxCell>
                <mxCell id="Ku1PNWVY-iLV4aGeplBr-18" value="" style="rounded=0;whiteSpace=wrap;html=1;fillColor=none;dashed=1;" parent="1" vertex="1">
                    <mxGeometry x="20" y="60" width="750" height="370" as="geometry"/>
                </mxCell>
                <mxCell id="Ku1PNWVY-iLV4aGeplBr-1" value="" style="rounded=1;whiteSpace=wrap;html=1;" parent="1" vertex="1">
                    <mxGeometry x="40" y="230" width="290" height="160" as="geometry"/>
                </mxCell>
                <mxCell id="Ku1PNWVY-iLV4aGeplBr-3" value="" style="shape=image;verticalLabelPosition=bottom;labelBackgroundColor=#ffffff;verticalAlign=top;aspect=fixed;imageAspect=0;image=https://www.nginx.com/wp-content/uploads/2018/08/NGINX-logo-rgb-large.png;" parent="1" vertex="1">
                    <mxGeometry x="140" y="320" width="178.29" height="60" as="geometry"/>
                </mxCell>
                <mxCell id="Ku1PNWVY-iLV4aGeplBr-4" value="&quot;/api&quot;&lt;br&gt;request" style="shape=process;whiteSpace=wrap;html=1;backgroundOutline=1;" parent="1" vertex="1">
                    <mxGeometry x="230" y="280" width="88.29" height="40" as="geometry"/>
                </mxCell>
                <mxCell id="Ku1PNWVY-iLV4aGeplBr-6" value="" style="shape=cylinder;whiteSpace=wrap;html=1;boundedLbl=1;backgroundOutline=1;" parent="1" vertex="1">
                    <mxGeometry x="660" y="290" width="60" height="80" as="geometry"/>
                </mxCell>
                <mxCell id="Ku1PNWVY-iLV4aGeplBr-7" value="&quot;/&quot;&lt;br&gt;request" style="shape=process;whiteSpace=wrap;html=1;backgroundOutline=1;" parent="1" vertex="1">
                    <mxGeometry x="140" y="280" width="80" height="40" as="geometry"/>
                </mxCell>
                <mxCell id="Ku1PNWVY-iLV4aGeplBr-8" value="" style="shape=actor;whiteSpace=wrap;html=1;" parent="1" vertex="1">
                    <mxGeometry x="394" y="500" width="40" height="60" as="geometry"/>
                </mxCell>
                <mxCell id="Ku1PNWVY-iLV4aGeplBr-9" value="" style="endArrow=classic;html=1;entryX=0.5;entryY=0;entryDx=0;entryDy=0;" parent="1" target="Ku1PNWVY-iLV4aGeplBr-7" edge="1">
                    <mxGeometry width="50" height="50" relative="1" as="geometry">
                        <mxPoint x="420" y="480" as="sourcePoint"/>
                        <mxPoint x="440" y="300" as="targetPoint"/>
                        <Array as="points">
                            <mxPoint x="420" y="240"/>
                            <mxPoint x="180" y="240"/>
                        </Array>
                    </mxGeometry>
                </mxCell>
                <mxCell id="Ku1PNWVY-iLV4aGeplBr-10" value="" style="endArrow=classic;html=1;entryX=0.5;entryY=0;entryDx=0;entryDy=0;" parent="1" target="Ku1PNWVY-iLV4aGeplBr-4" edge="1">
                    <mxGeometry width="50" height="50" relative="1" as="geometry">
                        <mxPoint x="410" y="480" as="sourcePoint"/>
                        <mxPoint x="440" y="300" as="targetPoint"/>
                        <Array as="points">
                            <mxPoint x="410" y="260"/>
                            <mxPoint x="274" y="260"/>
                        </Array>
                    </mxGeometry>
                </mxCell>
                <mxCell id="Ku1PNWVY-iLV4aGeplBr-11" value="" style="endArrow=classic;html=1;exitX=0;exitY=0.5;exitDx=0;exitDy=0;entryX=0;entryY=0.75;entryDx=0;entryDy=0;" parent="1" source="Ku1PNWVY-iLV4aGeplBr-7" target="Ku1PNWVY-iLV4aGeplBr-8" edge="1">
                    <mxGeometry width="50" height="50" relative="1" as="geometry">
                        <mxPoint x="390" y="350" as="sourcePoint"/>
                        <mxPoint x="440" y="300" as="targetPoint"/>
                        <Array as="points">
                            <mxPoint x="120" y="300"/>
                            <mxPoint x="120" y="545"/>
                        </Array>
                    </mxGeometry>
                </mxCell>
                <mxCell id="Ku1PNWVY-iLV4aGeplBr-12" value="" style="rounded=1;whiteSpace=wrap;html=1;" parent="1" vertex="1">
                    <mxGeometry x="394" y="100" width="206" height="90" as="geometry"/>
                </mxCell>
                <mxCell id="Ku1PNWVY-iLV4aGeplBr-13" value="" style="endArrow=classic;html=1;exitX=1;exitY=0.75;exitDx=0;exitDy=0;entryX=0;entryY=0.5;entryDx=0;entryDy=0;" parent="1" source="Ku1PNWVY-iLV4aGeplBr-4" target="Ku1PNWVY-iLV4aGeplBr-12" edge="1">
                    <mxGeometry width="50" height="50" relative="1" as="geometry">
                        <mxPoint x="390" y="350" as="sourcePoint"/>
                        <mxPoint x="440" y="300" as="targetPoint"/>
                        <Array as="points">
                            <mxPoint x="370" y="310"/>
                            <mxPoint x="370" y="145"/>
                        </Array>
                    </mxGeometry>
                </mxCell>
                <mxCell id="Ku1PNWVY-iLV4aGeplBr-15" value="" style="shape=image;verticalLabelPosition=bottom;labelBackgroundColor=#ffffff;verticalAlign=top;aspect=fixed;imageAspect=0;image=https://upload.wikimedia.org/wikipedia/commons/thumb/d/d9/Node.js_logo.svg/1200px-Node.js_logo.svg.png;" parent="1" vertex="1">
                    <mxGeometry x="410" y="115" width="98.11" height="60" as="geometry"/>
                </mxCell>
                <mxCell id="Ku1PNWVY-iLV4aGeplBr-19" value="" style="endArrow=classic;startArrow=classic;html=1;entryX=1;entryY=0.5;entryDx=0;entryDy=0;exitX=0;exitY=0.5;exitDx=0;exitDy=0;" parent="1" source="Ku1PNWVY-iLV4aGeplBr-6" target="Ku1PNWVY-iLV4aGeplBr-12" edge="1">
                    <mxGeometry width="50" height="50" relative="1" as="geometry">
                        <mxPoint x="430" y="230" as="sourcePoint"/>
                        <mxPoint x="480" y="180" as="targetPoint"/>
                        <Array as="points">
                            <mxPoint x="640" y="330"/>
                            <mxPoint x="640" y="145"/>
                        </Array>
                    </mxGeometry>
                </mxCell>
                <mxCell id="Ku1PNWVY-iLV4aGeplBr-21" value="" style="shape=image;verticalLabelPosition=bottom;labelBackgroundColor=#ffffff;verticalAlign=top;aspect=fixed;imageAspect=0;image=data:image/png,iVBORw0KGgoAAAANSUhEUgAAAbEAAAB0CAMAAAA8XPwwAAAA/1BMVEX///8hMTwQqlASkk8YKjYfLzsaLDcAHCsZKzcUKDQQJTL3+PlRW2Lo6err7O0AGikAFCXi4+RaZW3P0tQtOkS4xMJvd34LIi8AHy0Ap0dFUFgQp1AQo1Dy8/QAEiRWYWm+wsScoqaLkZbV19kAjkZmb3W1ubx0fIJ/hosyQEoAjELGycyTmp+kqa1FUVqHjpMQnE/u+fM6R1CDzp4ApT+NxqSp1bsAABu/5c3P7NqX1a6tsrYAABDg7+Z0upBmtIZApWwvsWFbv4Atnl+Q0qg6tWmn27lSqXa628anzrXk9et+vpg1pmnU7t9PunY0tWhqxYx5sJScuatLo3KMt6IfQs7BAAATp0lEQVR4nO1d6YLbNpImu3lCB0lJFtnKkk2JTYmyrljxbtvR7IwTT5wZzzi7m837P8uCAEgRF8V2Jyuph98ftyGROD6gqlBVgBSlRYsW58KnczegxRPxzX+euwUtnoTPd38+dxNaPAnf3T20i+ya8P7tzcNfzt2IFs3x7u3Nze3r9+duRoum+HR3Axm7/XDudrRoiO9ywiBjD/9+7pa0aARMGGTs9vV/nLstLRqAEHbzbU7Z387dmhYn8f3bmyNjLWWXj08FYZix24eWssvGu5Iwwtjt7Zdzt6lFDd7f3XCMtZRdMN78IGLs9s2529VChh8rhB0Ze/h47na1kOCvVcIqa6z1MF4ovlCEVRhrd9IXih+kjN2+biMvF4jvaMIoxh4+nLt1LTh8eXsjZ+z2desUvjj8clfH2O1DGyy7MHxilxjL2Idzt7AFhTc/sYQxjLX24oXhe1Ym3tz82y2Dc7exRQVvfuAI4xhrI9KXhE/8EuPX2Otzt7LFEYIlxjPWLrLLwTvBEuMZu304dztbFOD2YmLGWnPxUvBZRJiAsTaB8VIgsjuEjLVZwhcCkd0hZOyhPe9yEfjMOahkjN3efj53Y1soQn+HjLHW9rgI/NicsYefz93YForyRkyYWCretsFoiE6nw5cU+OOrfydWY2LG2qxuiHAwmXQHEOPFYpH/O7ifHDEYZ/OkL35y1U3hI7s1wmxRxXruhQ3rZ7MFahlrxSLEOjAMC0KzIbT8L8s4wrJBYO7HB9H470H+CPAR0N8lfNOfLIaN6peoMYlU/Nimm4aqCSyVgm5ommYYlQLbtBYJ++TqEVi6KoVhR/cNOHsj5kvGWHtyQglX890W+HY50pa/7KZput3nK8cuKNGBM/boJ3ubrKv6fvmg5hOU79Kc2cn6uYycE4y1DnyMYQoKwrqltREmh4XuluNvO2v+wXBuElLtRb+v9Pu91WHsBAXRTnqqZrGLSspYG4ousSDMBCu6fJj5BZmqORCosxX52K0swc2oeCbYnahXZnjIGHtoFRlBQsbY5nRPLwOFTvO7ArNxhBdU1KuUheOgoIzTfzRkhoeMsdbtUaC31CWMwWW0L5YM6Pa4T0WMKZ1FMQPq5aIgieoEY39/Xj9fDvp7OWNKmBYGhj/gNtVbS8CY0iczQI1qd+GfxY77Gqn4j+f18+Wg07XkjClKaZkEC/ajLpaZFiMwp4RkZ8U+UMUXGWFSy+Ofz+jki0KHDLyEMWVcUObPmU/wg7rOMNaPCMWHumq/yNSYlLFvn9HJF4VTjHW2xJjUdUbMEcZU1ijZ4xf607pq38u2Y1LG2iQ4glOMKT2VKCaf2ZbJGEu1BowJ06haxprgJGPKxiRy0aV3ZTLGyA6vXipKN9ByxtoNGcZpxjrEKFSDDVV+grGIcW7RkASg6xhrMwcwTjOmHMiu2NpSxTLGcLmxrK32r09n7DITqv4/QolMjYQxTc5YaBRbLGrZSBjrYOs+YE1LGnLGvpEx9q6mE3GpNMPDbjyezelxRIW7gyTeV/lePJ1l6W59qJUPq3GxBU2mi+12vK4PVYTz9QLWvo5PRg47qw2sPltvav1FhDF9VNPIjJiLPiUWJYzFSO3Z3frGfQVjsjXWm49BRKpbDaIA2DYwQaWp8eARFQZRWseEt15GZh7vA34QjWbi8Q3nmeVEeDbOt5FvW5btu1vpEHcO967po3CiGXWn5Us9ziPR32wjxweoftfK5C1twticiEWb2kVj9cYxhnbkFicrGcj1mJQxwa1H/eFhbEWBrWqD/L+rvasRK0l3ilhEPCoLVdvZ8C/BWMHhNwzNJqE/HTzuGM7C4XwxikxbV518Ua10p4wvGo+C8IaSu2adAIV+cfTK8B/363iVrOZppNLjnQwefUPXbK2oXj67mjDWeSQN21c7gf2KLGPrnF0wOuEHrrEVpYxxlsdaNWwyFvYYDs/Ar4ZoAaLMGwSVEK2qm+I9R3IPn7XNfToejIo4k7+sem02S90OSNjQTZT+2KSiuqKIlDLVgGob2WYzXajEE2TkUXvIoDWpDmVv4cNZ5yzTcbp0AXEb2hJjuwljCtmS6UaVHRFjYebrquWkJzWGfD8mZYy17jvbqAy8QsbmKtCA6brFsKo+lAgb1dah2PIBmbuq7ovm0sayVT1YeDnHnWShYc4M+6iLO6p/ZCjqDPdA1S1NOwbjg5gb2RQ+AlLMTLjWKIZBVVzFS6CqZjpE1XszErLSTfHCbcTYgMgVl2dMtVZeD8FLVru8aqNbuxPDkPs8pIxx7wjjVCUTUl+O4dy9X8deD4ou4ljTpgvTAlp3MZ3O0rJwyzdm6upwNh7pgSuOyKa4LIsHRsmZvVM1zcxD9vejIohrbVnFlL8EHCMYceGJsCzdAFWhGFuQAue4+HtjsgMWy/BGjM1Id52qVUQY0zVjiTDSHDx+qwYGr9yv2JwxCG9RLH8A0mL1eEXEwbeBuiOlXkYKI86y2zg5C3F1UBb4y4ZVCUx46zJea2vWYIU+6k1HZDabzDxdm/moVp7fkHcOJvt9WlnpcT5qtIdoSgwHNsyMG9eEsWJHZlbfMCqXuY5R/NfcZ6fUmPJZRpiUMUnaQIwlmLWvNK1zT0YRVNX3FM9cmw1CIOPWZzJTBvi19n21sF8YzfbkWFt/ggux8VMicfP6q5F4EiWBLIRVHeblClFjTOsMzw3acCjf81zGbICgHTW8DszxCc7kEU0ZYx8kbxrk46Avqa55uL12JhgG1qMdLo1cGzMR25CI24ie5Tj4Z3WrtfX3ohFEnh+HGoUNahXnns1nF+e/IH4mkaHUiLG5L2fMGs9y7NKtD03ZgjTbFavNEtKsAQljsmSqDtKx7MLB5ND7R6WDPQGM+wxJS27hKXMH946e/Dj8y7hMV/irQXXU+7lNQglFWIYY0+jg/Dxfi8aErT7BI6kveRvuSWvM4RnT1eN88+apU2bFnUinkmbmSBiT5XkQxsZ0KR5EjkebH28PKUKBh6ZIiqDGBa8xh14R4RYNIfUOJGr1fZ//Hu3rw05bwGcLjjFlJt+wJzEWnbLulXBW7n+CWspkaffSNSZxeYgZU1yBalFWWCxRkgbbAxGfxnLAc4/+NhZWDGNkJoCqDF77PGM4DmVRqnHocLKLfICrF6TLNGKMmDkqOMkYXM/7QjRK9hMYUtNDxpjkPRLG0MphGRvikaWahcwB3eLN2x7WJLQQuxcytkYymNKaSCzrS3oiIN1Gc4CtcJvX+iRiwiho9EkTxoSmi4QxuPiJpaarde/85YmWh+Q1EsZQf1nGsASk1kKIigxuM6WUXrhRtX9ixvCEprjFI2YxKjMvpO1HbDeJBr8Yc47MZjtoQzDfZIxVotZ1aaYyRSZmTJrFLWHsvoaxaqsSRAG//YXY4SHzq+tEzBhWGlRtOD+JyU5CUtGMKyU4k01fCgafOHP5LVkRbeG5rIBoYdowlTJWClFjX7OXlnk9JIxJT0ogFf3VjOHMZiFjOAhBq7jGjOEi2vTpbA1W8Hh4DEWMeS5WLTH7QYOIZukJdim+5YyFRc6iVTcNvnkKY/LTSItnMRajka0cOjgCaz16TyVmbGVyjOHxprUQ2iUCqqWeowr0HUIf88InXzRhDLdI1W2qVM5Ymcxfm7MoEYtCxuQn/p4iFXH2K8UYlj36SMBYgoV7gzWGDT6qNmI4UFIJSUpATWKykHTBzA7x3u/r1hhxKwLahVDDGBEo7BaWhuQ8kpAx+alaCWPI4GYZw4MgYEz1BYx5o2cwhqNO0Ag9coF0lkM7MQhjQMQY3uV9HWPFZjIRlAoZS4ibuz514L+aM/ZRmpYjYWxcw1h14sV4MrqCISOMga9jLBzhdJdjpDA/keAwe3rPko4TZkwHUsujhjHihWG9lXWMWQ2kYvNbjup+XeIpUpEwVnUwDDWJtigYo3c0zRmDo4Z9kNa018mjbilQDZP1bZBTCkBgVBPG+B1SA8ZSrJV8ZvgbMAbqc1YaM1aTR/V0xigvRh8rK0bg406gj+gN78RozBg0F/G+ybe6i8XWtHV/yS0l4s+3OL9i0Vid996H29qTEnl7SJSC9ZfUMYa1Q9VLE8bT6ZwxiYTpOSLGam4aePp+jPY7YQ5EYY0h9iZT3xb6FSWMKasRUQ6GbVtaYImSfYr4DW/e93V+wiDUnR9D6KBwABTILDM1jBE/ZKUP092w3x/uaL+V8PS66O63mtN+z2WMuBYE8hubT7QneP8UxpTOVLVRaofpPt7PhclZB7wcBCnv2CgReIJrz4/lwEaPwGapYYw4np3ymSzpDIew7x49sqKMqm95xj7WbMSfy5jc44osZOYVT2NMyd0cYL/ezKUOpRBnpegj7pO5KVn7BWMylUNCYy5vpxML0uZ3f2ER+CtG+rBSYns8gGZXQule0V3cPGO1B2qxZ45jbNCUsSJH3eYWGdL8UUyVkT0Se2ZcytjUOHFWtdi6+pzpg+RlIHCmF1JRYoivcBRQEJ/sqKJTtbidmOWyYyE0hWLY8g18y4yabgJzkWes9pfjQqSIOMaWIt+9iLFCgnPOYBRTpLMGCj3GWpaYMYv5Lizv+uJUjWo1+LidDtjsyDyybe0FAswrYv/CuTBHuQC68H4IVUa1h1M+jg8l8ZGxhP46f1Uwx1j9mXXUM56xkZCxkYAxoqc5czGf/DoTBglHQsbw9sfY06X9zNYEByVZkCOVNpMkjFIMhMsoKYLGBi8WwxnK7dKEuY5k88dTHU5QBME8bhZj+OrVcjrr5pqMJv/9acbqf5yxL7DBIVCvmKMdSmKItDzRZGpACeyhK5BVfTFj2HHCMAYtRayhTqSWhYW3YVz9Hppc3PYNYVMyxubxdubbvCW6PxH6c+PyHgJ6IuCIpu5XdverVb7GVijH1mMUIuddZBk7caYFu3KNCT0shfeH/i4OKxus23eKPQSquzh+kKARY0ULucOE3fDiiCaT1UES6KCA2o9n680hHnpi6uKCskpebr9ry4L4SSWHzR3Pj88k64mJdDqYCSsqT5XBOb6p9DRD+0ZbqxLjwTkZZ8o0lzvzmHkR8xN/NwxhJ+4InpP2A+oupqQwJwZVwXEgchwMYrpLGeZX9UcH/EE4Mw3ViJjJ1VmVSaKH6gvmxBSw9tXTMwenGFjDBsAPTMeNwD6d8XbjxiE2HFiT5ze+Bungd/VevBk41dxiO4jU7iLLsnQbuH4+8uCRvZUqR294yKzy+AFcT8F2sZ5Op+ux6iKTOLqnn1ogxjou7GfGmqvMdcGsW7Hm0jdvvH8s71WyXXCPxF2Ybd3yDIPmuNsdSo5e76Pyuxrs57iq06cudvzoQbTNdvAFAP5Jy5wwHT0eU+39SO+i2nqDZVQWG0FkdcueL48jdBwqDcAqWGMktkjeth8tF7vdvRvoug94HdbzHZ97qW6gW/eQvWE7wUwQuFHSR6dMbifIc9vJEQ7djgasSkwyZQUlyXStTHmVSP8E2Q8f6SVWIxPzcc4zWw3DyG0d3b/PuYldpEbLrFcNJXv1lzb6IkL+wSM1p5KuYxc9AcDSNbMqONA3yguEimmKjJ15RA+E7pYd9HSgCmFwF631UpcMqI6qtwJrJrASpwHuk869Us9vV3SXWSyUh17APVC2RfMdVZQQHO/wq2aioyX/XZWLP32glFjdlW+bP8F+6up+sp9AhtToER9JenRds2TMciO0OQ33lq5O9giTJZzCEdvC1DaBZlmGpdmmPeAulkzQlAxMhAD+6SBlFj+i00aoFF03WUkS741NQzxOvO2dLHQT2Aas3rKDoDsVHjUZA9Ir4FJw9OV2vDtI9CQU0H8qvlm2HnXGiaxtupZYRsluPZ+vF8LNyZuqif/L/1ZXWO0vQnc8dEYjhEAnNbw+KfXI2Q1cisUE/LMfEvTzD7jX9eZZ2u1OuoMF6//MEe52UO7HGHP4J774M1xkUB9sUOkGlmbUqbNh1yJSS7OM6sowecO8H+9Q9feLjWzo+5VeUYBdqxuosPwiaudhirCJV16v7rmel8h8NV+Oro+7n//noZES+2PQ6YS/57nm4cTyR4PxOE3T7mRpHHWJxBPyO1f/B+L9kbG//Hpk7Np/DnoNoKVdyrdeEi8Kb76u1560vgKUGcJ3/zgyJjpHe0Xod01NZdRAZ2Nj1VYf670GFJTd/faqMBav/Mb0YaAZgiRQb8Qn6V8nCGV3v66I6XHldznPXV31RfGQITK1+eDV9YGcjH716jcsFq+cMKiw+CNOCCgQ5Fy7Hsvx7gZy9surV7lYfPh43UZHktvyEsmXZ4czPshrxZef7u7+DBn79eH1z1d+bRi6e9cRZ0Tnse1Tcc5rwecf3/72Kqfs2i+376CgnSBHI0e+xl6CGsP4/hXCuZvxXJDESPH5OajHhCczrhQvgzF8j6vgtJ6CMwMfm/20zVUAEXbybomLB75DHoiMxa4mvhLpWjHMGTt5R9LFY0gOYPDZ2RlQAzYp5aqR5Iw1/QmzCwbJtwEDWl54A0ACay8G3otQY7kziuQtqONhn5gZ/WSh24Z9+nejrgo9SNiLUMtD2yJBZWc0yLJ1lqUjNz8tEZ+7Zb8z+i/C8MiRFFcq5jFNdA2Urvu+5GrUK0YIGXsJLrccOyeoXNFpAMcWJW9cOzovwlQkCDddx0VZFaYT7Xfxudvzx+BlmIolOsM5SqkYvhwnBwvI2Mvt3IvE8EUY9/9KSF6Gcf8vhKvJ/2rR4oLxf4pNynHXSswcAAAAAElFTkSuQmCC;" parent="1" vertex="1">
                    <mxGeometry x="530" y="340" width="111.99" height="30" as="geometry"/>
                </mxCell>
                <mxCell id="Ku1PNWVY-iLV4aGeplBr-23" value=":27017" style="text;html=1;strokeColor=none;fillColor=none;align=center;verticalAlign=middle;whiteSpace=wrap;rounded=0;" parent="1" vertex="1">
                    <mxGeometry x="641.99" y="250" width="40" height="20" as="geometry"/>
                </mxCell>
                <mxCell id="Ku1PNWVY-iLV4aGeplBr-24" value=":8080" style="text;html=1;strokeColor=none;fillColor=none;align=center;verticalAlign=middle;whiteSpace=wrap;rounded=0;" parent="1" vertex="1">
                    <mxGeometry x="354" y="120" width="40" height="20" as="geometry"/>
                </mxCell>
                <mxCell id="Ku1PNWVY-iLV4aGeplBr-25" value=":80" style="text;html=1;strokeColor=none;fillColor=none;align=center;verticalAlign=middle;whiteSpace=wrap;rounded=0;" parent="1" vertex="1">
                    <mxGeometry x="320" y="240" width="40" height="20" as="geometry"/>
                </mxCell>
                <mxCell id="Ku1PNWVY-iLV4aGeplBr-26" value="${HOST_PORT}" style="text;html=1;strokeColor=none;fillColor=none;align=center;verticalAlign=middle;whiteSpace=wrap;rounded=0;" parent="1" vertex="1">
                    <mxGeometry x="420" y="430" width="110" height="20" as="geometry"/>
                </mxCell>
                <mxCell id="Ku1PNWVY-iLV4aGeplBr-27" value="" style="shape=image;verticalLabelPosition=bottom;labelBackgroundColor=#ffffff;verticalAlign=top;aspect=fixed;imageAspect=0;image=https://opencollective-production.s3-us-west-1.amazonaws.com/7a00cdd0-fae4-11e7-ae09-7f36f712693a.png;" parent="1" vertex="1">
                    <mxGeometry x="533.1" y="102" width="61.9" height="30" as="geometry"/>
                </mxCell>
                <mxCell id="Ku1PNWVY-iLV4aGeplBr-28" value="" style="shape=image;verticalLabelPosition=bottom;labelBackgroundColor=#ffffff;verticalAlign=top;aspect=fixed;imageAspect=0;image=data:image/png,iVBORw0KGgoAAAANSUhEUgAAAXMAAACICAMAAAAiRvvOAAAAkFBMVEX///8AAAABAQGioqLc3NzNzc36+vr29va9vb0+Pj7x8fHz8/Pu7u78/PyxsbH4+PjW1tbo6OiKioqWlpaEhIRTU1NDQ0PPz8+3t7ecnJzY2NgfHx9OTk7FxcUqKioaGhozMzNkZGRsbGx1dXV8fHwtLS0ODg6fn59ISEhtbW1bW1tSUlINDQ2pqakWFhZAQEB6mSRTAAAQK0lEQVR4nO1d6XqiMBRtRlxQQXGpWkTBpVVa9f3fblhys6MEGDsq58d8U5AAJzd3y014e6vxWGi1e91ut9+P/ukNfvthnh59Yz7ahqaLCFbL4+5r5tTU/wt0Z43j4Q8lG7H/R34wHvZ/+xGfC4YdrjHTKqSn1svF8Lcf9FngLPbZdAvEr7ez337cJ0DzkIdwhne3USv3Muid/Nx8M7TvnN9+8IdFe5xfwgXat8ZvP/xDotVYFyEcWN/UrGtjvlczjhTIkPVaw2jBWcpUYoKDcWM+67cGbceYefOvySGD+OjQ5Ldf45HQkDhMaF02vLbi15a3UDo30QHv7o/+oOhPFYyvRs2rF81GK4n2eFT07vTQj43mmacuUSh5BHY2kjzLyF2vY9PbGEuM78d5rWGrGcisN/7p4z4BBgHHWcTge6el04BxRGKnbf/Vwz4HHJclLGZc3woaGyT021JleWukmAlkudftZhaMEPFd59auehY6gpCPC7c084Wm6qhUjTnPU1hKOMeCqNfuiwoC5WXdDWNZk34LPOVmBcpgxJNeqxcRrPmM9IpVRZt8N65rQ8rD4CivKjnlrNhm3ToPwKLnspSfqms4ZEk/VNfuEyBkKe9U2fKWJb1O7lIw1g6hivOvE7btCkfQg8NjaSkWevLgLPCIHUO1HU3RZymvQrHYfLXFhCHdr6D5Z8CBofyrgva2Yr8dSafW83UpGowY7so3175spGPfFeuuR4fDaJZp+eaM9afshvd8eg+z/D0eHtRNROvypbUdtUUwGO1Shfp6bHQYNsoP+zFCR+UJmgZAf17dd2ntKeXF0+UYVjyxlxHgb+lwqsBoPDTojHN5RduPp/3nWWd/aOe+doaxz2iWskO+mRRlZJ4e0luFJe/02KAxIlqUbOqULHe5Mts8od37ygsDeoxlK9nULqE8U7NEaK/Jzb5L3uyRsaBifo2t2+gnE3FXNEsMG3r4pTV6VQZ0mMxNoJ/r/r1lktvJoeqrYE7FvFQCN3W+EbJz/a4Sg/2wWBG5ey/TDM6Q53BHfML5qwajH1TsSmRwW7hyOo/sUo3uF7/hQ4M6b75WGSgHA8turjmg1pr08v3cRWfRiLH4L+w2mXcuUT9Eppjy+X8kHrhjHr2JF9+U88yUsIyhnmEaVmDRFrSNXDlJhyqX4kNLE8B5pVPrCTpxsiPUScaOysfiG+ps5pxdNu/vov8zznHDrsYl9PULOopdWnyLljmvsckVo2I31cc/4/xdu2EyjYA+i91yyE5d59VOJNuQu5dKozTnreGH8vgZN5xfekhAdCNiz4LNUp7fCJt6BqAClOJ84JyOPxnRBGwdlH/eYUtevpBBZ0qFtGR2TLr6XmtHS3De2vrJpWqRmuCGc1d5W++E8wKlmz2uDlHHHjbvrtBL+IptfKmac8vXFHPqtenYXbj4zFGuM6k3IPetoMggF0rI+XXO394aph9qDFca+OtHJ9y6I92cJFXoldS438Y/k3NtkEqim9lACfyqXd2IakdufCcj+v9wTpMtmsHJYMNR/ke3XIAa0eoDQyX+H86p26J3nWMKlOvOdniE86v5XMuZzefzoSMroL7h2Qvvw8geJn3D8DpNA/8inz53PuZfC3smjFl8qVYJd3T3BPKTB8VMaFNazq8bw1PjfcVx+dia+HXNjc35VV6Adx1E53DeVVxqjJfgOK+nX46Cc+sYpJgCwz17iX+ElidcVDw8TKff+KA/jbEUHtg+JIcPbD+1OrArIjInQihlHQq5Dw1plxHtQqQuFLpkp3mcALH4od3a8bkznyNxj7thyP0gngSUON/BSbBkX2f2Ejf9YRNJEILHL3yYPp41XnMXHLjKuIFbxG3ZSZSb2s5Hizguq4xfeOK7gjhbgXgGnTlZGoTi+ZPM+RzO4eqSgSlelFCi4FyYxW2InBtr6RK2Zo3mPfILavdd3kunwErb4IYlmYnPDUu/nJVMA5eg+5DPGhLnBpzCmqLnylfFpOtzPpeviHQVFUpSwJV/ZlLiAumkdyhuWO+WL94Eew19WYoSkPGroHzfFjm3oHm8wwmV8rV5Idd5eXSLwLmtfjyaF3G054isRqPxtRiPxyMGRSYeaN5eeRoe/dD5cIzZIjJuWH0QM3exPz4+vIC8FXZg+oxWnk5Gu03oJiaD5xyUOfC3xX9vZlEzTuMn/cu13mZ704T+WF2i/5u+UNzKc07GDwrs4dDb/cCfRHl/6E42VIfx9aAIq+QldOcHLq4+wTuM8Gglaj/gLowIm+OGu17sk3Ocw/iH5qERYMHBmiaSxFbL6uKzX9EfEQTbxXNOhifWYc4UDoDJmRUPQ8uCRsCqALaFH1RKYxDKyRGi7BKj0iFdIOTsWM4d/H8f6irx4BmLjfrJHwNEekD5IgznRLNQow4DEzxD7/c4t69yDq8pGmd4wQtzDJKpyUgAzSLNBrCcgzCCJ4QZZr2vgLn/9TiU4xwsMaM2+oj9AZtSvbtu6eTiXHRh9/g4W6MBlMQbCYCS+JR2pWY4B+VNbowPsGmBOSP5+TmHm3D+L9gO7JTOtG1oZaByrgojQbegBac9QSnw5cMb2hFAp/w6lHMY/2T4tz7TfmINC75TErDl53wkizl1pLCza5AXL7SipZ98QaTbi9FutweDQSv3Pmcncmul1xMA6abN9AmIMS/+QGIkSOBIym0C5x6MdWoqsK/xnprI1E5izi9xl+fnHOaj+aGbdily0xehvmIRF3uO3AirCPv93k/g5h4vi+u+IhOFno9Ek4zxId76gH+2JeNAsXUGkfOAdBAA+0Kf7yYDzFMs+7k5b4M653+xob+I0C0xZREHsRLym+LRjTh0yzZ76PBPz5fcAScBIVYxauEUbKZsUo0/Rtlw3jQ4h84Xam1B46QOAY39C5SCb6Tkok75IYlDM2o8LD5pMk0GZsBJDAAM7rfkZzOQAkq6x+ZIPFWWc8FpWuDDaahMc1z6dSYdiXJTZQ2zQPItmQXYAhXOG+WcdyEHONhbEs4VmQw5iCcZxol0qiTnofoXqQWhuVztKejuWqRca3PWgX97hA0P7NuvW1S38KFSm7yq2sYmUCROwE+5Juda+hw4FyZwQHdhLbApOE/Erq7FDeituOvnymjOtkz2ZEQlkp9gA0+E6nNFTp5yPgGtBSMMc3IZNr0InU5nPp/bEU6nk63ltzh4wJ35X0CfYud0cj3rkQ1PmJvTndakNXvXzW7fBv8LrbvEK+T7CeL9Ec0wyQ0RzkPi3UAzJ74LJOTm3II0M5+SwcP1x4HbAWl6nA14zYJWunXU9MY3c+9ggiIbBMRduB+AHHk0HSMbc7jU7NGpHfyzIc+JBOBcne9m/XPIrXC6z4I747+puOkFojuW8kh2tD8ANSFK7XYiGKS7QcNTjh7mIFgAeaqRyyuS7Gxyc+A0a8SBX6TWgiznIB6caZsLB+lUsFb1ObdzdKE5CzI1t789rQdMj2imlr0jpHe/mf/L/HGcE+2S8hCkf7gZQfTgLDNpH79HqX5mOSe6jfXgpBzRoYgRtX44ygvkJGlgkGN7C2tPiCZamXroJDSL2QSRlbPA/JwF0VeJNQaDkLFvKkwq+eR0Lz2SKBsurwjGh3HGQAx8coROkWlUS7CT0OinyLbDNMOVkdA0mPQ3sMqmYYkBaZHAMvmT+tojKmuxfyDMh5IJuLgdMhH4zpHQBrmH0UX0L9wzjnI4zolMED1E0vvUYHZuvbwCTHVLFEsXqn073lrEFLgNwuqRoWcIr3DuJFI3IxOZadcP6Oeq1jvPcBzHGB8ubxLnZNY0CQZpdmc7cyIdb7UdY75zwf0lHXmcG82xQS+OFTI/T0SmhY7p45NJDCbopEY0dyTaYrbVQttii7DIXVdq65vY+sPWbnqdLejDdLzS5Ih/HO9o1ASCxZdo/ElyevFuV2KtxYi7kAlFf/zDwdwn102VbXp0an//JnLeIxOgKJwsJrSAgxVN/RUPdLtR3UCIgI6ujOBVVV2A5X6rOMXat4XirFxrwRQWJKZQKomJAbHNgCvvYDiPJUaY9zeQElwBDs3v5ayenDGUF10kEaIbLShSfUQfqkJ11o9RkN5R1HGRbj1b6SMpAOqdK6CYU60dKy2xvkVRUoRc3lgSCnOWz1l0tX7hb4LQwP8zY3C9i099ZqIc7yycNPlt22Z78eqRgnNGSyd/NsSLUEY/23TW9fSmqONqSSNxIirQtZ7nQseFfiAEoGt4sxaOtU8c6y5fkdgesVVXpjxA7Qv/0mMV5xYRyNR96C34Oqaf5YlKxOkTMb/GRjTAL8NzHt3rm21G8WVJWn2fZ34ObG6x4i0M95ZqSe7kjYKl77p+uGtKa53a3iQ4+K45PZ7UkmJ8bQ5xx3z64cSLqeuf7AQMAYaNAZ1mGadj+B4j3DaEgui+fVxGJ6abRdyas/lEZuo6OsMUnFQYjc30stofgklTpQzo4vNVjsnMPVBeYt083cDFvTVU2t1u5kNZ7d5Vp8nq9h2nr/0hKitG5iny/75zy2Nr9XqZMTaVutsBJV7Qgv6o16fmwzsZWS+7xyKtqPJv5T4cvBWRWeabFGSCSfCgXgkD6vzdEvRLSrl6Y9a8oPtxldoX6bFBJy7c64Ke+Btld3Ri9p270/Kt/xF0H+7rrouRbitXbrV4m+7Roz0f+EzYUBquhTnLmHK/5I4rzJ6lL/0pEWZf8it7OyWJ4OKBUApmTBVY7f5MOFJBz/S7k7mV0jsimFTM715+/X+Bkb7M9GIcjJfeQIzRLJfbv35u0H1YsiZGI82yKv0hSjYn+fJfEemdb+TEo5GwLL0bQm9Fxbycj/8UON2QwLCK75ZvKOWvu1UuA/8qH3YVCzHYCaa7r+v4H8F8OhS5YsrMqWLbLHa7tBeO+lksGErEnUEUaXdtcJ8QrDVLCvrBOdF5cSr4tC23D2OtWTDYz59VvgU/Q/kr7+8vgRv9QaV7kw0/GcrzzEe9DFiVjqYlMyss2Gr1l/50iALssizkV7YjnM1Rfq+dQx8F9BOfFQrkiKP8pTO4Klh7jvQqNsVv8Ru8lv3Q1xOCWw6H0K70PvzDFddg6a82PiMcl+PILJlL5HYbrSnPAEd6uXqtt+F7TXkuOGueqFVRR8OKdy5hW6rNZybaB54q9F3IgZlzjBdbd/RC2ApsoUCXdWu+Elbt/rzy50Lz4Etc5ozCpkYyoL8QGUfmvT5c8bgYSqShyynnvhUfvB5Prt7daWv5h0ZXsT3LeuPdpH04fhcZryi4egV0FNyhz0Mj22P/mG+SBRDiVWY9RZEbko7Aiy/Dr46wU5DROe3wypA/0hV1uK8D41tJYorz/jINNpuQXYXzR/6x1tfvakQQXT6ZehXV9DfmC9c7F8ZgnMX6LaiXtNXIg7ZtZovydcZrB7E4vPCKBlETjoI67iwJZ3RNcUuEf45ry1kFvN35Ju+pQzMpXcBbg2BGv/qjZBshd7qodUrV6A5P21D6wEcMP9ydhhVUfNVQou04M3s82W6D6TQMNtvJomM4daVQjRo1EvwF1uHZApe9E/MAAAAASUVORK5CYII=;" parent="1" vertex="1">
                    <mxGeometry x="520" y="156" width="70" height="25.66" as="geometry"/>
                </mxCell>
                <mxCell id="Ku1PNWVY-iLV4aGeplBr-30" value="" style="shape=image;verticalLabelPosition=bottom;labelBackgroundColor=#ffffff;verticalAlign=top;aspect=fixed;imageAspect=0;image=data:image/png,iVBORw0KGgoAAAANSUhEUgAAAOEAAADhCAMAAAAJbSJIAAAA2FBMVEX////DAC/dADHQADDdAC/cACHcACvcACnDAC3AAB7CACjCACbvmqjCACrjmqjbAB3TYXLbABjmYXTcACXAABrBACLjUWTOUWPAABb/+vy/ABDbABngkJ7vxc398/X63uPbAA7YcYP86u7stb6/AAbwpLDtj57yrrn1vcf3zdTsiJfSV2zlWG/OOlT51dzrgZLKHUHgi5nhME/uvcXiO1fpdYfJJEbhKkznprDSSmLfFD/cf43jRV/oaH3PACTPPljYLVLMAADHJUHaan/PACrLCDzaAADUDDstGs7DAAANhklEQVR4nO2da1viyhKFAQM0RAaRoAlI0AgqKsh4G3V03Gdm3Of//6OTABFCKp2u6kL0PHk/7gtxEVKrqrqrk8tlZGRkZGRkZGRkZGR8OcbnW3+6m/4j1oe3/eOw+de0W9/Hzqb/ljXgDfaKxVKhsJXPi1Z7dNDb9B/EzNlloV42CoWpQp9apTV6cDf9V3HhDO/qc3nvCv0bWa20H4//H36t4/OnRjOUt6QwoGrZR92vfSd727f14pK8FYX+nTTt30fjTf+ZVNzBc7NYiupbVRg8ki1rcuBt+o/F455dHsblQQqncac/+valRDrdu0KnHFeXpHAqsr1z/FVEjq+e6k3g7kkVTh/J/M4XyHe8E5k8mcKpSMv8+anjjjd4PgzyFhkyhflpvjP5/knzHfd4t1xPkZeucPZIPj58vkey+1JY5C16CvNBKlB9PN60pGXGV82G9OHDKgySOqu/c7NpYTN6J9fK8tQVBvjBdfP5jh9bimmxhaxwVmd936BI53ivWYfyFjaF+SDuVO43E3ecm5d6Rym26Cn0b6Sf1D1+eDHp5y2Yh09LYUDVMnc+sM7yY4s8b5Hxi6RwmtRNjj4kqfMG1x2waFCjc2wRJU5FinXnO+7pZQMXOlcoX+YuTLLEILius87yY0uBEluWaXRzXVtDYX4aXPfXUmcN71KKBhVKt/4njap6EoN8R1wwJ3W9k8Khtjyf+qn/YRpP4kKkabWPhlydOj9vaRQZ5BUKxlPwNzkToS9xmu/cc8Qd93SvpFATqVE8mX7mQYVDYT54JK3RNz2RZ37JpxlbljAaM8922yw3McDPdyqvD8RfqzO+Mhp88nyad/OPPmpxKcxP40575waf74xxNZEKRiP8QfXajArzsybW0RB1+wa3TS1jB/HdPkTL9WGRLfv3d/Ub6RVZf51zOotvWdf1QWo2opJ8WoPA0vPSBV51XR9A5BER55r9Jzp3+5AHBtePKZyoC8xdJrTkNTAKy9+wk2czjHdq9wiFV012hcXtyBXYXH+BeYFQOChyCzQ60UDH6PohlQeEwuM6t8J3tw9hdf0pFqbcGDaYBRqd1fSxZ3PfRJRC75BZYXk3dg1212+jGqvMCo16PKfqchtGHyMwV+C1/Gltv8qoxipQtFEKb3ktvw49Ihy1/rLCN5TCO1ZDNArgRXhdH2WHudwJqyGuuH0Ir+u3DlAKWS3fKMJljctqGBWcwrMOo8LiVcJVWF3fwqQ0vh8zWr5RTGoW9SzGm4ipDn3cOp9dAG4fwun6bVyrxuWrgSG3D2F0fVHBKXT4DBF0+xA+1xcTZLttl60G7sgSYr5av4qzQ0bLN0rS67DFGvMIqZDN8usD6XXYXL+FVXjKVAMbhvzx8FpMNxFp+Hw1cKLbh3C5vo3qefv0mNbTmmlLQ70Kz020sWtQHk+F2HxJvRKP64sWVqHzg0OhzO1DeFxfvKGX9lksX+r2Ifccrl97xQrkaXs3zhSudMyxTFN9RCvksHzjKf65wI+pxhBrkBV+AEcNDLn9P/F/xOH6re9ohTf6lm8U4m5/85/43jQO17fw+4mH+gqL5/GPvfwF/Jx+6rs+QaG+5RvluEX1yn9N4J/q30QLm9L4hqi9T6EJ1PYnxa0K8MTs67q+aBF2umknNY1448R5MrbEW3wxWntdX1TxArUtH3L7005hK28DJbGu6yMb3jNeNC0fcnv/W9vKV0fxf/GgeROr+JRGuwYu/Yh/5Phwus+7H481uuv6rZ8EhQM9u4DcPsiTtuCGg6bro1a4Q/Ta3sZT3O1dw5jN44v4v/OE1k1ENrxnjLWqfMjtp4ngVsI3rlfr25QRKVdnHRhy+1l0DhTWgFijV+sjG95z6CMHcG3fnf4ophMlNjA4oeX6uPXfkB8ahngILJPMmsxTheYO8AVobMkkGb5WDRzZpTfH6yzOxRA2kGRN6K4P/ewV0Nj6Bbn93F9nc09QcqpR65sUO9Sx/NI18HHzx3qmUNTi/4HzRo41hPo3gN72htw+3Eg2n12DNjDRXR/d8J5BbntDbp97LkcUQp0jj9ywQW34WrogVeF8rCLCOCyo5wpFBYi2ZNdv0+agPINmiEYTuN576y6csITWisjr+lBoVsAltr0ht3ff6+n3M4bywE/5kbb9WwjiLNszzfIPgYRtUai8T8lCyTLR9Wsj4tQMbaW7vAd81CI/elcIbsum1fpQiqQEre3dANL84SKLX0w6t4H2GM31yQq3KZYPLsYsJYALhVAj3iVN7pEq/ABSDRwZq5jjLfVeFwpFBYgPJNcn2qHvYYSkBnT75fxvaR4fykRItT5yw9eCHqFChNzeWa7DlhTW7oEQeEQoEy2qQsJKdzhEGSHya18+UwHqPRAm90SNPEeKr4FjYxUBe8uuEzlzbx/4r/GuL35TBRLa3g3g24zu5IyciwFtoMC7PmrgKQra8peGKBdEK+mIQjDMo3fzkRreM86xlt8BOkxOI/I0RxSKNhBr0K5v/iErxNbAoNuv9M6jp7dAyamLbdiQGt4zsJYPuf3qtGZUIdhCwro+2fDRbe/oEOWc4cp+6pXTPaG1W8/EuT6p4T0D2faG3D63WyxF+FuNUIGSZqTrtzWOVWhgLB90e+95L8rjfpRH4H/q9VEKcSNdUVD72UG3p4FyfWFrXAlT5RuQ2xNBuT5phTsEUwNLxirwYOb1yfVvAKYGrnMexIXZw1/5pnEhhOUrbbRUBlPraynsqls+6PZ0EK5v6VxZfeI5YYiSfmX1JWEdO8w5ygNeCUOUdNRdH8relXFUDdGocx9qqOz62JGuFVQNsZk2VoFHdQ+/mGgdaqa49St5iJKO6m4+LTtUXulmdfsQxbP5iCvcIWqWrzJWgUfR9ckN7xlqh5zwun2I4tl8WoavWgN3eN0+RM31yQ3vGT2VvdApQ5Rk3L7KTUSPdEXxVAyR3e1DVNb1BbAzHoOjcOqXUYIsdzuJbzBQv0zllB70hPMqe+kKwSHK7r9FmF8VGHA7hYLrgysDGNItHx6iTGyXJ512DYZEBdfXVphu+dBYhaQoSVIo8tDl02t9jYb3jNQBL9jtkzOFxBPLoT2nCq5P3PC1oJtm+bDbJ6/LJSoE88v0PfzgF4NhnDb+BA5RSr6X5DfpVKFYk+r6lq7CXso5n9AQpXRZLvlcffD3lnZKj2jpvhzCSVnprkNu70m+lmSF4LJ+mutDkw1I5EkNfGSCrCKRvBsBfKRSXB8OwSjkVT58ZILsW5EohGtZuevXMIeWwkjb3uBYxXzsAK9QgHmNfF6fMMO9irQGhmt76SZ/2Rs84FJPuq6PPMMMQtr27kBu70kNRvpWMnCNRer6pIGnKDeStjfs9vI9/tK3sMDzyrKNYBor3CGyc81At3fk+4ykCuFYI3N97ZQmJzvoswS6fUqeJ1UI5zWeZPt3n+ENEMnb9+ADklK2GcnfFQTn0RLXp410RUms8sGNlilxJk0hnNckT+4JwaAw8Z5AQ5TpHdaU9z3Bz1Wi62ts+FqQtPUr4YCktB2bKQrhM0oSXZ848BQl6aaUwQOSztIarGnv7OqDoxNJrs9g+MmWDw1RKgwtpimEY02S62s2vGcktL1ht5fVTWoKE1LphLNBNDZ8Lf3RsEL4gKT0mcXUN8vBRXuC6xNHuqK4YOyAjkxIzWeUFMKxxgVvorA4lp7htjfs9rIkVlWhMMH7Aro+OB6GZw8IHrDbq2ybTn//IRw9QNdnqA4DXgBDbEIbLf1HNn0dR+F9wHCsuQCaw+gjPWGgtndpbxdAZW+/wjsszYsdgFfAEpkUgm3vUhlAZeOGyls6qyYA5PksKQ1q6xeTQmUIJ3xB9A4536vDqbAGnOVDonvb4HtVAp9CYd3zvebx9IntBHMuhaJV/cb1hscp20Wm98zxKBSm/ZN7J517V2Y5AJtFoWntrOOtub1djseRQWGt/biOPVgBw1vUAMZ6FArrjccjYM60Q46mQlGpcRS9EpztJ71DMfUUtkz2ABPHPW/ohBwdhdX+nzW/lntO77JBz3LoCmv2q+6KtjrjZ/I7gqkKhfV7nQEmzvE1MeQQFVbe9JfRkDiDJinkUBQKs494Tywf7hUlkyMorNo763hbvAreSxEdctAKa/bjxwWYOMM9bCaHVCjs0ccGmDhnTx3UTxWlUFTsDw8wAIMCJuQgFIqWydOH0cY9L6uHHHWFVftoUwEmTu9FOctRVVhr728ywMQZPyuGHDWFwppwDt3ycKaW5agoFJXJZwgwMZyBSmGloLDVOthEBqOCe5Ke5aQqrPY/UYCJ473UU1aBUxRW7f2PKQHpjC/lhZV8T5Q9+nwBJs6NtF8l219qvfE1sdfLqZEccpL36rfaB6xN7LXinJSSQk6SQrNy9FkDKIx3l1BYwQqr9sVnDzBxepeHUMiBFIr2aF1N7PXSvQbCalyhsPJfJcDEAVblVhWKVn7NTez14mwbRalC0/r5mTMYFby7fyNZTkRhtf8FA0yc3mW9DCqsWa9fM8DEGS4Vj+8KWZfhN88i5LyfyV7jXYbfOM52p7n0Bg+z/wGrZB+Ne9VszhWa1saa2OtluhFga53L8JtneNv4a0023cReL8f//ZQ9poyMjIyMjIyMjIyMjBT+B+sdVaHK99yoAAAAAElFTkSuQmCC;" parent="1" vertex="1">
                    <mxGeometry x="50" y="240" width="60" height="60" as="geometry"/>
                </mxCell>
                <mxCell id="2" value="Docker" style="text;html=1;strokeColor=none;fillColor=none;align=center;verticalAlign=middle;whiteSpace=wrap;rounded=0;fontStyle=1;fontSize=23;" parent="1" vertex="1">
                    <mxGeometry x="374" y="10" width="80" height="30" as="geometry"/>
                </mxCell>
            </root>
        </mxGraphModel>
    </diagram>
</mxfile>
